<svg width="42" height="42" viewBox="0 0 42 42" fill="none" xmlns="http://www.w3.org/2000/svg">
<g clip-path="url(#clip0_114_1434)">
<g opacity="0.9">
<path d="M36.0911 12.4893C36.242 12.6988 36.3827 12.9188 36.5062 13.1492C38.5168 11.0228 39.0417 8.65906 37.9884 6.49778C37.7414 6.07181 37.3845 5.52015 37.1135 5.11163C38.5579 7.09833 38.208 10.1465 36.0911 12.4858V12.4893Z" fill="#E2FF66"/>
<path d="M36.9625 14.1757C37.0552 14.4341 37.1341 14.6995 37.1993 14.9753C39.004 13.5473 39.7347 11.6513 39.3299 9.99634L39.323 9.96841C39.2064 9.52498 39.0211 8.9384 38.8839 8.50195C39.5323 10.2966 38.8736 12.4998 36.9625 14.1757Z" fill="#E2FF66"/>
<path d="M37.4086 16.1694C37.4429 16.4662 37.4635 16.7699 37.4738 17.0807C39.0554 16.1345 39.8446 14.8147 39.7965 13.5158L39.7725 12.9641L39.6902 12.0389C39.8617 13.4914 39.0829 15.0346 37.4086 16.1729V16.1694Z" fill="#E2FF66"/>
<path d="M37.4463 18.411C37.4223 18.7357 37.388 19.0674 37.3434 19.4026C38.7192 18.837 39.4843 17.9571 39.6113 16.9899L39.7313 15.9215L39.7622 15.5479C39.6902 16.6478 38.9079 17.6952 37.4497 18.4075L37.4463 18.411Z" fill="#E2FF66"/>
<path d="M37.0895 20.8341C37.014 21.1798 36.9248 21.5289 36.8253 21.8816C38.0159 21.6267 38.7124 21.096 38.8976 20.4186C39.0143 19.9961 39.1481 19.427 39.2544 19.001C39.0795 19.7901 38.3521 20.457 37.0895 20.8306V20.8341Z" fill="#E2FF66"/>
<path d="M36.3484 23.369C36.218 23.7251 36.0808 24.0848 35.9298 24.4444C36.9488 24.4549 37.5492 24.207 37.7242 23.781C37.8958 23.3655 38.105 22.8034 38.2663 22.3879C38.0776 22.9151 37.436 23.2747 36.3484 23.369Z" fill="#E2FF66"/>
<path d="M35.2402 25.9563C35.0618 26.3159 34.8731 26.6755 34.6707 27.0352C35.5284 27.2866 36.0122 27.2796 36.1288 27.0666L36.8459 25.7084C36.6984 26.0086 36.1666 26.1099 35.2402 25.9598V25.9563Z" fill="#E2FF66"/>
<path d="M33.0684 29.577C33.7648 30.0519 34.1114 30.2648 34.1285 30.2369L34.2864 30.0169L35.0172 28.9311C34.952 29.0323 34.5471 28.9101 33.782 28.5295C33.5556 28.8822 33.3188 29.2348 33.0718 29.5805L33.0684 29.577Z" fill="#E2FF66"/>
<path d="M31.1333 32.0036C31.6617 32.7054 31.8435 33.1244 31.72 33.2571L32.2895 32.6007L32.7733 32.0176C32.8008 31.9059 32.6018 31.651 31.9773 31.0085C31.8504 31.1657 31.72 31.3228 31.5896 31.4764C31.4387 31.6545 31.2877 31.8291 31.1333 32.0002V32.0036Z" fill="#E2FF66"/>
<path d="M29.0541 35.9282L30.0765 34.975L30.1897 34.8632C30.4093 34.6468 30.3373 34.1195 29.9118 33.2816C29.6168 33.5714 29.3183 33.8507 29.0164 34.1195C29.3629 35.0518 29.3526 35.6593 29.0507 35.9247L29.0541 35.9282Z" fill="#E2FF66"/>
<path d="M26.8308 35.8443C26.9784 37.0175 26.7382 37.8066 26.2133 38.1627C26.5838 37.9078 27.0573 37.5482 27.421 37.2829C27.843 36.9581 27.9836 36.2459 27.7503 35.174C27.445 35.4079 27.1396 35.6313 26.8308 35.8443Z" fill="#E2FF66"/>
<path d="M24.6248 37.1537C24.5424 38.5887 24.0072 39.5454 23.2078 39.9435C23.5955 39.7479 24.0998 39.4651 24.4807 39.2556C25.16 38.8681 25.5614 37.9812 25.5443 36.6579C25.2389 36.836 24.9301 37.0001 24.6248 37.1537Z" fill="#E2FF66"/>
<path d="M22.4597 38.0371C22.0926 39.7654 21.1834 40.8757 20.0409 41.2284C20.4457 41.1027 20.9775 40.9037 21.3755 40.7605C22.9058 40.132 23.2214 38.4421 23.3552 37.7228C23.0533 37.8416 22.7548 37.9463 22.4597 38.0371Z" fill="#E2FF66"/>
<path d="M21.2384 38.3443C20.9502 38.4002 20.6688 38.4421 20.3909 38.47C19.6601 40.544 18.2329 41.773 16.6683 41.9266L17.1452 41.8708L18.0922 41.7171C19.4749 41.4588 20.6723 40.2716 21.2418 38.3443H21.2384Z" fill="#E2FF66"/>
<path d="M19.2485 38.5119C18.9843 38.5014 18.7235 38.4805 18.4696 38.4421C17.2688 40.9001 15.1313 42.1641 13.1173 41.8603C13.4295 41.9057 13.8515 41.9406 14.1672 41.9755L14.6201 42C16.4454 42.0698 18.2569 40.8059 19.2485 38.5154V38.5119Z" fill="#E2FF66"/>
<path d="M17.4437 38.2012C17.2069 38.1244 16.9805 38.0336 16.7575 37.9288C14.8087 40.7954 12.1085 41.8568 9.53528 40.771C9.97787 40.97 10.5783 41.2004 11.0346 41.368C12.1737 41.6962 15.0729 42.0489 17.4437 38.1977V38.2012Z" fill="#E2FF66"/>
<path d="M15.8792 37.4016C15.8552 37.3841 15.8311 37.3667 15.8106 37.3492C15.6356 37.2165 15.4709 37.0734 15.3096 36.9197C13.0967 39.6501 9.1236 40.9944 6.30334 38.5154C6.62929 38.8191 7.08217 39.1997 7.42527 39.4825L7.5831 39.6013C9.9985 41.382 13.6971 40.4078 15.8792 37.4051V37.4016Z" fill="#E2FF66"/>
<path d="M14.6132 36.1027C14.4657 35.8897 14.3284 35.6698 14.2049 35.4358C11.618 38.0091 7.56254 38.6027 5.15057 36.7661C4.62907 36.3681 4.22764 35.8897 3.94287 35.359C4.18304 35.7885 4.533 36.3401 4.80061 36.7521C5.05451 37.1083 5.36329 37.433 5.73384 37.7123C8.14924 39.5524 12.1257 38.8296 14.6166 36.1027H14.6132Z" fill="#E2FF66"/>
<path d="M13.7588 34.4023C13.6696 34.144 13.5941 33.8751 13.5289 33.5993C10.7842 35.7466 6.60524 35.998 4.18984 34.1579C3.35611 33.5225 2.84147 32.7229 2.63904 31.8605L2.67678 32.0211C2.77971 32.4226 2.94783 32.9533 3.06791 33.3514C3.32523 34.0916 3.809 34.762 4.51578 35.2997C6.93118 37.1397 11.0689 36.7382 13.7588 34.4023Z" fill="#E2FF66"/>
<path d="M3.90503 32.4506C6.32044 34.2906 10.5371 34.2662 13.3265 32.3947C13.2956 32.0979 13.275 31.7942 13.2682 31.4834C10.465 33.1419 6.23466 32.9953 3.81926 31.1552C2.75909 30.3487 2.22386 29.3501 2.19641 28.341L2.22729 29.0253L2.29248 29.811C2.39884 30.7781 2.93064 31.7104 3.9016 32.4506H3.90503Z" fill="#E2FF66"/>
<path d="M13.4158 29.151C10.647 30.2683 6.44406 29.6853 4.02866 27.8452C2.80723 26.913 2.27543 25.841 2.40924 24.8634L2.272 26.0645L2.25142 26.3019C2.17593 27.3145 2.70773 28.3724 3.87083 29.2593C6.28624 31.0993 10.5098 31.4974 13.3026 30.1496C13.3266 29.8214 13.3643 29.4897 13.4124 29.1545L13.4158 29.151Z" fill="#E2FF66"/>
<path d="M4.78684 24.3222C3.45219 23.3062 2.91353 22.2622 3.1434 21.4382C3.02332 21.8607 2.88951 22.4298 2.77972 22.8557C2.26851 25.9074 8.98978 28.9101 13.6799 27.7195C13.7588 27.3738 13.848 27.0212 13.951 26.6685C11.3057 27.2097 7.20224 26.1588 4.78684 24.3222Z" fill="#E2FF66"/>
<path d="M6.07688 20.677C4.66676 19.6016 4.08692 18.6624 4.33052 18.0758C4.15554 18.4913 3.94625 19.05 3.78156 19.4689C3.5311 20.1603 4.09035 21.1519 5.47303 22.2063C7.88844 24.0464 11.8992 25.3767 14.4313 25.1776C14.5617 24.818 14.7023 24.4619 14.8567 24.0987C12.4207 24.0464 8.48886 22.5136 6.07688 20.6735V20.677Z" fill="#E2FF66"/>
<path d="M15.5567 22.5939C15.7385 22.2343 15.9307 21.8746 16.1297 21.515C13.9887 20.8656 10.297 18.8475 7.88161 17.0074C6.42688 15.9006 5.76813 15.108 5.94311 14.7972L5.21918 16.1555C5.00646 16.5849 5.63089 17.4404 7.06847 18.5367C9.48387 20.3768 13.282 22.1924 15.5567 22.5939Z" fill="#E2FF66"/>
<path d="M17.032 20.0276C17.2619 19.6749 17.4986 19.3258 17.7491 18.9766C15.9821 17.7371 12.5958 15.2441 10.1804 13.4041C8.70848 12.2833 7.93994 11.6653 7.96053 11.6339L7.71693 11.976L7.06847 12.9397C6.97584 13.0863 7.69634 13.7777 9.16137 14.895C11.5768 16.735 15.1004 19.0325 17.032 20.0276Z" fill="#E2FF66"/>
<path d="M18.847 17.5451C18.9499 17.4194 19.0528 17.2972 19.1592 17.1715C19.3376 16.962 19.516 16.756 19.6979 16.557C18.3838 14.7588 15.3577 11.8084 12.9457 9.96839C11.4876 8.85808 10.5852 8.40417 10.3862 8.61716L9.71375 9.3853L9.32605 9.84968C9.42555 9.73097 10.2696 10.2512 11.738 11.3685C14.1534 13.2086 17.3339 15.9704 18.847 17.5416V17.5451Z" fill="#E2FF66"/>
<path d="M20.9158 15.2825C21.2109 14.9927 21.5094 14.7169 21.8113 14.4515C20.9879 12.1646 18.3597 8.81965 15.9478 6.98309C14.5273 5.90071 13.4981 5.58297 13.0555 5.96705L11.9232 7.01451L11.9164 7.0215C12.2526 6.69329 13.2339 7.0634 14.6749 8.16324C17.0903 10.0033 19.8831 13.1911 20.9158 15.2825Z" fill="#E2FF66"/>
<path d="M23.0842 13.4111C23.3895 13.1771 23.6949 12.9571 24.0037 12.7477C23.6846 10.0661 21.4716 6.4 19.0562 4.56344C17.7078 3.53692 16.579 3.296 15.9031 3.7499C15.5326 4.00129 15.0557 4.36093 14.692 4.62279C15.2719 4.18286 16.3663 4.44821 17.749 5.50267C20.1644 7.34272 22.5524 10.8832 23.0807 13.4111H23.0842Z" fill="#E2FF66"/>
<path d="M25.2903 11.9411C25.5957 11.7666 25.9045 11.6025 26.2098 11.4523C26.402 8.47053 24.6007 4.56348 22.1887 2.72342C20.9433 1.77721 19.7802 1.56073 18.919 1.9867C18.5313 2.17874 18.027 2.46156 17.6461 2.66407C18.4387 2.21715 19.5949 2.43362 20.8884 3.41824C23.3038 5.2583 25.2766 9.07108 25.2972 11.9411H25.2903Z" fill="#E2FF66"/>
<path d="M23.9866 1.93432C26.402 3.77437 27.9631 7.78618 27.4759 10.8972C27.7778 10.7819 28.0763 10.6807 28.3714 10.5899C29.0645 7.40909 27.6715 3.33793 25.2561 1.50137C24.165 0.670376 23.05 0.436441 22.0927 0.72624L22.0172 0.74719C21.633 0.865903 21.1321 1.05096 20.7512 1.18364C21.681 0.830987 22.827 1.05445 23.9832 1.93781L23.9866 1.93432Z" fill="#E2FF66"/>
<path d="M26.9853 1.07539C29.4007 2.91544 30.5672 7.03898 29.5894 10.2896C29.8742 10.2372 30.1589 10.1988 30.4368 10.1709C31.6102 6.89233 30.6015 2.74436 28.1861 0.907796C27.3112 0.240908 26.3711 -0.0314343 25.4722 0.0488717L24.8581 0.118703L24.0415 0.247891C24.985 0.0768042 26.0109 0.33518 26.9818 1.07539H26.9853Z" fill="#E2FF66"/>
<path d="M29.7987 0.865859C32.2141 2.70591 33.0067 6.85738 31.5725 10.1429C31.8367 10.1534 32.0974 10.1813 32.3479 10.2198C33.9639 6.95165 33.3154 2.81415 30.9 0.974097C30.3133 0.527177 29.6786 0.258327 29.0267 0.150089C28.6699 0.0942237 28.193 0.052325 27.8328 0.0139178L27.5137 -0.00354004C28.2959 0.0348671 29.0782 0.314192 29.7953 0.862367L29.7987 0.865859Z" fill="#E2FF66"/>
<path d="M31.4489 0.796058C31.3391 0.747176 31.2259 0.705277 31.1127 0.66687C31.2156 0.705277 31.3323 0.750668 31.4489 0.796058Z" fill="#E2FF66"/>
<path d="M33.3703 10.4712C33.6036 10.5515 33.8335 10.6458 34.0531 10.7505C36.0636 7.60811 35.7343 3.56837 33.3189 1.72832C33.089 1.55374 32.8522 1.40709 32.6052 1.28489C32.2655 1.12777 31.8367 0.949698 31.449 0.799561C31.7612 0.935731 32.0631 1.1138 32.3513 1.33377C34.7667 3.17382 35.223 7.26593 33.3703 10.4747V10.4712Z" fill="#E2FF66"/>
<path d="M34.9245 11.2882C34.9245 11.2882 34.9348 11.2952 34.9382 11.2987C35.1304 11.4453 35.3122 11.6059 35.4872 11.7805C37.6727 9.07106 37.7688 5.54109 35.8097 3.58582C35.4529 3.24714 34.9554 2.82116 34.578 2.50692L34.5471 2.48248C34.5471 2.48248 34.554 2.48947 34.5574 2.48947C36.9728 4.32952 37.1375 8.268 34.9245 11.2847V11.2882Z" fill="#E2FF66"/>
</g>
</g>
<defs>
<clipPath id="clip0_114_1434">
<rect width="37.6" height="42" fill="white" transform="translate(2.19995)"/>
</clipPath>
</defs>
</svg>
